<?xml version="1.0" encoding="UTF-8"?>
<svg width="100px" height="20px" viewBox="0 0 100 20" version="1.1" xmlns="http://www.w3.org/2000/svg" xmlns:xlink="http://www.w3.org/1999/xlink">
    <!-- Generator: Sketch 56.3 (81716) - https://sketch.com -->
    <title>logo</title>
    <desc>Created with Sketch.</desc>
    <g id="1111" stroke="none" stroke-width="1" fill="none" fill-rule="evenodd">
        <g id="01-登录页-1-密码" transform="translate(-600.000000, -122.000000)">
            <g id="Title" transform="translate(600.000000, 120.000000)">
                <g id="logo" transform="translate(0.000000, 2.000000)">
                    <path d="M79.2497244,10 L80.3008374,10 C80.6299596,10 80.8988764,9.73757631 80.8988764,9.41691298 L80.8988764,5.02730127 C80.8988764,4.70663794 80.6299596,4.44444444 80.3008374,4.44444444 L79.2497244,4.44444444 C78.9206022,4.44444444 78.6516854,4.70663794 78.6516854,5.02730127 L78.6516854,9.41691298 C78.6516854,9.73757631 78.9206022,10 79.2497244,10" id="Fill-1" fill="#FFFFFF"></path>
                    <path d="M70.7865169,9.41693714 C70.7865169,9.73758718 71.0556415,10 71.384493,10 L72.4354957,10 C72.7645832,10 73.0337079,9.73758718 73.0337079,9.41693714 L73.0337079,5.02750731 C73.0337079,4.70685726 72.7645832,4.44444444 72.4354957,4.44444444 L71.384493,4.44444444 C71.0556415,4.44444444 70.7865169,4.70685726 70.7865169,5.02750731 L70.7865169,9.41693714 Z" id="Fill-3" fill="#FFFFFF"></path>
                    <path d="M78.1859571,12.6907617 C77.2409244,11.3518377 77.2138545,10.5585523 77.2136128,9.53703837 L77.2136128,2.86159738 C77.2136128,2.50990508 76.9233355,2.22222222 76.5692503,2.22222222 L75.4361779,2.22222222 C75.0816094,2.22222222 74.7918155,2.50990508 74.7918155,2.86159738 C74.7918155,2.86159738 74.7915738,9.52337343 74.7915738,9.52361317 C74.7915738,10.5515999 74.768371,11.3458443 73.8192295,12.6907617 C72.7734095,14.1725682 71.281418,16.3568003 70.5321594,17.4545501 C70.3397691,17.7343217 69.9032655,17.6302764 69.9032655,17.2951259 C69.9032655,17.2939272 69.9027822,17.293208 69.9027822,17.2920093 L69.9027822,7.65319512 C69.9027822,7.30174256 69.6129883,7.0140597 69.2584197,7.0140597 L68.4497038,7.0140597 C69.6925063,5.25296114 71.2284865,3.07664031 71.3273403,2.9383128 C71.5248062,2.66189752 71.3536852,2.22222222 70.9316834,2.22222222 L69.7531721,2.22222222 C69.1639165,2.22222222 68.7844532,2.55881117 68.564993,2.86926892 C68.2171919,3.36192581 64.2860011,8.93266463 64.1259982,9.15681752 C63.928774,9.4332328 64.1027953,9.87506573 64.5250388,9.87506573 L65.7033084,9.87506573 C66.2928058,9.87506573 66.6696103,9.5365589 66.8888289,9.22586141 C66.9591625,9.12613135 67.1778977,8.81591334 67.4812266,8.38630694 L67.4812266,18.2497535 C67.4812266,18.601206 67.7712622,18.8888889 68.125589,18.8888889 L71.6500049,18.8888889 C72.2704394,18.8888889 72.6668214,18.5326416 72.8976414,18.2056421 C73.0559525,17.9812495 74.5549531,15.728453 75.5947307,14.2550372 C75.7189627,14.079311 75.8656723,13.7921076 76.0024724,13.4701425 C76.1392726,13.7921076 76.2862239,14.079311 76.4099725,14.2550372 C77.4499918,15.728453 78.9487507,17.9812495 79.1073035,18.2056421 C79.3381235,18.5326416 79.7345055,18.8888889 80.3551817,18.8888889 L81.5170159,18.8888889 C81.9612538,18.8888889 82.144943,18.4238016 81.9370841,18.1327624 C81.8362968,17.9915581 79.6010891,14.6963907 78.1859571,12.6907617" id="Fill-5" fill="#FFFFFF"></path>
                    <path d="M88.7640449,8.25069287 C88.7640449,8.60191484 89.0333491,8.88888889 89.3621315,8.88888889 L90.4131494,8.88888889 C90.7421678,8.88888889 91.011236,8.60191484 91.011236,8.25069287 L91.011236,5.08289242 C91.011236,4.73167045 90.7421678,4.44444444 90.4131494,4.44444444 L89.3621315,4.44444444 C89.0333491,4.44444444 88.7640449,4.73167045 88.7640449,5.08289242 L88.7640449,8.25069287 Z" id="Fill-7" fill="#FFFFFF"></path>
                    <path d="M86.7950921,7.01399078 L86.0547432,7.01399078 C87.1927033,5.25291754 88.5986139,3.07686775 88.6893321,2.93854224 C88.8698834,2.66213093 88.7132286,2.22222222 88.3269019,2.22222222 L87.2482405,2.22222222 C86.7085779,2.22222222 86.3609724,2.55880633 86.1602861,2.86925961 C85.8418874,3.36214915 82.2432518,8.93256811 82.0967751,9.15671778 C81.9160025,9.43312908 82.0755338,9.87519538 82.4618605,9.87519538 L83.5407431,9.87519538 C84.0799632,9.87519538 84.4249135,9.53645369 84.6255999,9.2260004 C84.6902089,9.12627178 84.890674,8.81605823 85.1681389,8.386458 L85.1681389,18.2495229 C85.1681389,18.6009704 85.4336555,18.8888889 85.7580283,18.8888889 L86.7950921,18.8888889 C87.1196862,18.8888889 87.3852028,18.6009704 87.3852028,18.2495229 L87.3852028,7.65335673 C87.3852028,7.3016695 87.1196862,7.01399078 86.7950921,7.01399078" id="Fill-9" fill="#FFFFFF"></path>
                    <path d="M96.5428039,9.01455654 C97.1363155,9.01455654 97.5159626,8.68540414 97.7368391,8.38334148 C98.0871863,7.90435641 99.7562813,5.61970791 99.9175562,5.40203101 C100.116646,5.13329114 99.9441014,4.70560878 99.519127,4.70560878 L98.3321037,4.70560878 C97.7380913,4.70560878 97.3556894,5.03284332 97.134813,5.33490598 C96.8793776,5.68419589 95.9237487,6.99169567 95.3617908,7.75955813 L95.3617908,2.86158818 C95.3617908,2.50990094 95.0612786,2.22222222 94.6939024,2.22222222 L93.5206526,2.22222222 C93.1532764,2.22222222 92.8530146,2.50990094 92.8530146,2.86158818 L92.8530146,10.4587037 L89.4667427,10.4587037 C89.0803341,10.4587037 88.7640449,10.7614856 88.7640449,11.1316322 L88.7640449,11.8045607 C88.7640449,12.1744676 89.0803341,12.4772494 89.4667427,12.4772494 L92.8530146,12.4772494 L92.8530146,14.1721565 L89.4667427,14.1721565 C89.0803341,14.1721565 88.7640449,14.4746987 88.7640449,14.8448453 L88.7640449,15.5177738 C88.7640449,15.8879204 89.0803341,16.1907022 89.4667427,16.1907022 L92.8530146,16.1907022 L92.8530146,18.2495229 C92.8530146,18.6012102 93.1532764,18.8888889 93.5206526,18.8888889 L94.6939024,18.8888889 C95.0612786,18.8888889 95.3617908,18.6012102 95.3617908,18.2495229 L95.3617908,16.1907022 L98.8692693,16.1907022 C99.255678,16.1907022 99.5722175,15.8879204 99.5722175,15.5177738 L99.5722175,14.8448453 C99.5722175,14.4746987 99.255678,14.1721565 98.8692693,14.1721565 L95.3617908,14.1721565 L95.3617908,12.4772494 L98.8692693,12.4772494 C99.255678,12.4772494 99.5722175,12.1744676 99.5722175,11.8045607 L99.5722175,11.1316322 C99.5722175,10.7614856 99.255678,10.4587037 98.8692693,10.4587037 L95.3617908,10.4587037 L95.3617908,9.01455654 L96.5428039,9.01455654 Z" id="Fill-11" fill="#FFFFFF"></path>
                    <path d="M41.011236,7.03703704 L41.011236,6.2962963 C41.011236,5.88884931 40.6997563,5.55555556 40.3189768,5.55555556 L32.714731,5.55555556 C32.3339515,5.55555556 32.0224719,5.88884931 32.0224719,6.2962963 L32.0224719,7.03703704 C32.0224719,7.44448403 32.3339515,7.77777778 32.714731,7.77777778 L40.3189768,7.77777778 C40.6997563,7.77777778 41.011236,7.44448403 41.011236,7.03703704" id="Fill-13" fill="#FFFFFF"></path>
                    <path d="M30.5010902,6.80949915 C30.5010902,5.39100333 31.6637815,4.24124737 33.0982361,4.24124737 L39.9354718,4.24124737 C41.3699264,4.24124737 42.5328601,5.39100333 42.5328601,6.80949915 C42.5328601,8.22799498 41.3699264,9.37775093 39.9354718,9.37775093 L33.0982361,9.37775093 C31.6637815,9.37775093 30.5010902,8.22799498 30.5010902,6.80949915 L30.5010902,6.80949915 Z M40.3051766,11.3967761 C42.8669278,11.3967761 44.9438202,9.34298975 44.9438202,6.80949915 C44.9438202,4.27600855 42.8669278,2.22222222 40.3051766,2.22222222 L32.7285313,2.22222222 C30.1667801,2.22222222 28.0898876,4.27600855 28.0898876,6.80949915 C28.0898876,8.48810448 29.0021494,9.95574542 30.3629055,10.7550128 L29.1093032,12.5254356 C28.413046,13.5090571 29.0949998,14.7803573 30.258176,14.7803573 C30.4116338,14.7803573 30.90522,14.780597 31.6022044,14.780597 C30.7503076,15.9842927 29.3711269,17.9328366 29.228336,18.1325336 C29.0198467,18.4235686 29.2036082,18.8888889 29.6494358,18.8888889 L30.8063088,18.8888889 C31.428625,18.8888889 31.8262092,18.532407 32.0577292,18.2054122 C32.3660994,17.7698187 33.6689148,15.9298735 34.4825078,14.780597 C35.3399805,14.7808368 36.2384238,14.7808368 37.088866,14.7808368 C36.2372116,15.9845325 34.8582734,17.9328366 34.71524,18.1325336 C34.5067508,18.4235686 34.6907547,18.8888889 35.1363399,18.8888889 L36.2932128,18.8888889 C36.915529,18.8888889 37.3131132,18.532407 37.5448757,18.2054122 C37.8530034,17.7698187 39.1555765,15.930353 39.9691694,14.7810765 L41.1340426,14.7810765 C41.7013273,14.7810765 42.2892186,15.4206822 41.9263018,16.2837183 C41.5932038,17.0760335 40.7039729,18.012188 40.6179105,18.1325336 C40.4094212,18.4235686 40.5934251,18.8888889 41.0390103,18.8888889 L42.2630362,18.8888889 C42.88511,18.8888889 43.2654817,18.5197012 43.5144566,18.2054122 C44.0257402,17.5607721 44.5435693,16.7197913 44.5525392,15.7050047 C44.5615091,14.690218 44.1115602,12.7625308 41.374775,12.7625308 L31.8211182,12.7625308 L32.7881689,11.3967761 L40.3051766,11.3967761 Z" id="Fill-15" fill="#FFFFFF"></path>
                    <path d="M62.2493388,4.06661815 L53.9355255,4.06661815 C54.329586,3.5111256 54.6242934,3.09551038 54.7152672,2.9676833 C54.919719,2.67965888 54.7394471,2.22222222 54.2994209,2.22222222 L53.1584173,2.22222222 C52.543865,2.22222222 52.1510016,2.57356949 51.9223699,2.8958544 C51.8436057,3.00690566 51.5175362,3.46646882 51.0918744,4.06661815 L47.8630207,4.06661815 C47.4933796,4.06661815 47.1910112,4.36503886 47.1910112,4.72985404 L47.1910112,5.39308993 C47.1910112,5.75790512 47.4933796,6.05632583 47.8630207,6.05632583 L49.6801038,6.05632583 C49.3150113,6.57117834 48.9757746,7.04940757 48.7272724,7.39957344 C47.0583809,9.7517335 48.2925131,12.5681823 51.4447572,12.5681823 L54.8902722,12.5681823 L54.8902722,14.2419846 L47.8630207,14.2419846 C47.4933796,14.2419846 47.1910112,14.5406416 47.1910112,14.9054568 L47.1910112,15.5686927 C47.1910112,15.9335079 47.4933796,16.2319286 47.8630207,16.2319286 L54.8902722,16.2319286 L54.8902722,18.225653 C54.8902722,18.5904682 55.1926406,18.8888889 55.5620423,18.8888889 L56.7435054,18.8888889 C57.1131465,18.8888889 57.4155149,18.5904682 57.4155149,18.225653 L57.4155149,16.2319286 L62.2493388,16.2319286 C62.61898,16.2319286 62.9213483,15.9335079 62.9213483,15.5686927 L62.9213483,14.9054568 C62.9213483,14.5406416 62.61898,14.2419846 62.2493388,14.2419846 L57.4155149,14.2419846 L57.4155149,12.5681823 L62.2493388,12.5681823 C62.61898,12.5681823 62.9213483,12.2697616 62.9213483,11.9049464 L62.9213483,11.2417105 C62.9213483,10.8768954 62.61898,10.5784746 62.2493388,10.5784746 L57.4155149,10.5784746 L57.4155149,8.35721329 C57.4155149,7.99239811 57.1131465,7.6939774 56.7435054,7.6939774 L55.5620423,7.6939774 C55.1926406,7.6939774 54.8902722,7.99239811 54.8902722,8.35721329 L54.8902722,10.5784746 L51.6298171,10.5784746 C50.6551999,10.5784746 50.0593211,9.53010355 50.7011656,8.62562653 C51.033699,8.15684848 51.769869,7.11934623 52.5237549,6.05632583 L62.2493388,6.05632583 C62.61898,6.05632583 62.9213483,5.75790512 62.9213483,5.39308993 L62.9213483,4.72985404 C62.9213483,4.36503886 62.61898,4.06661815 62.2493388,4.06661815" id="Fill-17" fill="#FFFFFF"></path>
                    <path d="M23.8072372,13.2948311 L22.2751473,13.2948311 C21.8035069,13.2948311 21.5335743,13.6340311 21.4411249,14.0465644 C21.1158215,15.4964311 19.9179339,16.5806978 18.4755743,16.5806978 C17.0332148,16.5806978 15.8350799,15.4964311 15.5100237,14.0465644 C15.4173271,13.6340311 15.1473945,13.2948311 14.6760013,13.2948311 L13.1439114,13.2948311 C12.6722709,13.2948311 12.374653,13.6956311 12.4396642,14.1886978 C12.8633496,17.3932311 15.3921136,19.8665644 18.4755743,19.8665644 C21.5587878,19.8665644 24.0875518,17.3932311 24.5114844,14.1886978 C24.5764957,13.6956311 24.2786305,13.2948311 23.8072372,13.2948311" id="Fill-19" fill="#FF0000"></path>
                    <path d="M17.63102,5.53025926 C15.3830359,5.53025926 13.7569068,6.4667037 12.0941837,8.42177778 C10.6389072,10.1326296 9.43179114,12.0062963 7.09825953,12.0062963 C4.82361754,12.0062963 2.97332011,10.0268519 2.97332011,7.59344444 C2.97332011,5.15977778 4.82361754,3.18059259 7.09825953,3.18059259 C8.23606521,3.18059259 9.37120511,3.72374074 10.1343468,4.63374074 C10.169002,4.67496296 10.5012558,5.15537037 11.1252919,5.15537037 C11.1252919,5.15537037 12.4761181,5.15562963 12.7892267,5.15562963 C13.4072042,5.15562963 13.5717559,4.54274074 13.3756995,4.07866667 C12.8284865,2.78211111 10.7503855,1.77635684e-15 7.09825953,1.77635684e-15 C3.18415951,1.77635684e-15 -1.77635684e-15,3.40640741 -1.77635684e-15,7.59344444 C-1.77635684e-15,11.779963 3.18415951,15.1863704 7.09825953,15.1863704 C9.33170302,15.1863704 11.3419476,13.9035556 12.7710509,12.1608148 C14.2890945,10.3097037 15.2807667,8.71085185 17.63102,8.71085185 C19.5777704,8.71085185 21.1561577,9.9387037 21.6524785,12.0213333 C21.7700154,12.5139259 22.0416832,12.811037 22.4471249,12.811037 L23.9557171,12.811037 C24.5618198,12.811037 24.693655,12.1737778 24.6473673,11.8525556 C24.0996695,8.06088889 21.2143203,5.53025926 17.63102,5.53025926" id="Fill-21" fill="#FFFFFF"></path>
                </g>
            </g>
        </g>
    </g>
</svg>